<?xml version="1.0" encoding="UTF-8"?>
<!DOCTYPE svg PUBLIC "-//W3C//DTD SVG 1.1//EN" "http://www.w3.org/Graphics/SVG/1.1/DTD/svg11.dtd">
<!-- Creator: CorelDRAW 2018 -->
<svg xmlns="http://www.w3.org/2000/svg" xml:space="preserve" width="2092px" height="371px" version="1.1" style="shape-rendering:geometricPrecision; text-rendering:geometricPrecision; image-rendering:optimizeQuality; fill-rule:evenodd; clip-rule:evenodd"
viewBox="0 0 2092 370.89"
 xmlns:xlink="http://www.w3.org/1999/xlink">
 <defs>
  <style type="text/css">
   <![CDATA[
    .fil0 {fill:#333632}
    .fil3 {fill:#DE1327}
    .fil2 {fill:#DF1327}
    .fil1 {fill:#FEFEFE}
   ]]>
  </style>
 </defs>
 <g id="Layer_x0020_1">
  <metadata id="CorelCorpID_0Corel-Layer"/>
  <g id="_617565640">
   <path class="fil0" d="M880.73 271.21c7.12,-30.52 20.26,-62.2 29.77,-91.33 5,-15.3 9.78,-28.6 14.84,-43.52 2.22,-6.55 4.82,-16.06 7.07,-22 6.68,-17.61 1.31,-11.65 13.56,-17.87 41.23,0 117.46,-4.11 153.06,7.45 47.21,15.34 63.47,49.91 33.33,97.64 -45.13,71.48 -149.1,71.11 -251.63,69.63zm15.12 -89.21c-35.1,108 -303.04,128.94 -263.48,3.09 36.29,-115.47 301.29,-119.45 263.48,-3.09zm-265.31 -8.34c-28.73,118.53 -296.7,135.66 -267.47,17.61 29.76,-120.18 293.64,-125.57 267.47,-17.61zm878.99 96.44l-57.96 -0.17 51.14 -152.08c5.86,-16.9 2.2,-14.45 14.19,-20.13 52.4,0.48 141.35,-10.86 175.34,21.46 40.01,38.03 -4.91,103.43 -17.1,150.78l-58.2 0.49c17.14,-82.36 78.39,-146.03 -56.76,-136.86l-50.65 136.51zm-272.96 -136.4c-14.5,25.71 -37.58,124.59 -57.22,136.74l-52.1 0c2.95,-12.5 50.47,-169.02 64.6,-172.72l108.35 0.85c144.17,0.61 60.98,125.38 50.67,171.82l-58.23 -0.23c17.76,-83.22 76.31,-147.42 -56.07,-136.46zm193.74 136.46l-65.52 0.28 60.59 -172.35 63.62 -0.38 -58.69 172.45zm519.84 -137.89c-55.53,1.28 -143.46,-12.22 -158.78,40.72l140.83 0.25 -11.55 28.02c-31.13,-0.33 -120.67,-6.22 -142.86,3.67 -1.35,47.12 60.7,34.18 127.78,34.18 -3.67,14.37 -5.29,24.47 -17.78,30.22 -40.27,0.04 -108.59,5.81 -141.34,-8.37 -38.22,-16.55 -51.95,-57.18 -21.37,-95.8 46.98,-59.36 139.18,-71.91 237.16,-66.57l-12.09 33.68zm-1579.8 -4.4c-52.23,0.07 -125.84,-11.94 -160.27,22.51 -12.57,12.57 -27.52,46.36 -14.71,69.57 11.31,20.5 48.72,17.06 76.44,15.91l24.11 -62.59 58.93 1.11c-1.97,11.92 -24.65,92.92 -38.14,96.78 -40.01,0.11 -114.14,3.91 -148.8,-7.04 -77.35,-24.44 -63.87,-128.44 62.12,-160.49 36.51,-9.28 112.62,-8.26 152.79,-6.01l-12.47 30.25zm-370.36 187.48c0,31.75 20.27,50.01 45.84,50.01l1883.64 0c73.22,0 92.51,-83.12 105.09,-128.28 8.04,-28.88 17.6,-59.19 26.5,-90.18 10.53,-36.63 22.6,-63.93 22.6,-102.43 0,-20.95 -20.72,-41.67 -41.68,-41.67l-1887.8 0c-77.62,0 -93.66,94.15 -104.71,128.67 -10.54,32.98 -49.48,155.35 -49.48,183.88z"/>
   <path class="fil1" d="M954.12 235.11l36.14 -102.93c48.58,-4.08 116.15,3.73 78.36,64.19 -19.67,31.49 -68.66,37.54 -114.5,38.74zm-73.39 36.1c102.53,1.48 206.5,1.85 251.63,-69.63 30.14,-47.73 13.88,-82.3 -33.33,-97.64 -35.6,-11.56 -111.83,-7.45 -153.06,-7.45 -12.25,6.22 -6.88,0.26 -13.56,17.87 -2.25,5.94 -4.85,15.45 -7.07,22 -5.06,14.92 -9.84,28.22 -14.84,43.52 -9.51,29.13 -22.65,60.81 -29.77,91.33z"/>
   <path class="fil1" d="M493.81 135.64c103.38,-25.9 83.54,80.51 2.22,101.07 -88.37,22.33 -101.98,-76.09 -2.22,-101.07zm136.73 38.02c26.17,-107.96 -237.71,-102.57 -267.47,17.61 -29.23,118.05 238.74,100.92 267.47,-17.61z"/>
   <path class="fil1" d="M765.36 133.84c101.42,-22.37 77.92,90.24 -8.8,104.37 -89.52,14.59 -84.52,-83.79 8.8,-104.37zm130.49 48.16c37.81,-116.36 -227.19,-112.38 -263.48,3.09 -39.56,125.85 228.38,104.91 263.48,-3.09z"/>
   <path class="fil2" d="M1236.57 133.7c132.38,-10.96 73.83,53.24 56.07,136.46l58.23 0.23c10.31,-46.44 93.5,-171.21 -50.67,-171.82l-108.35 -0.85c-14.13,3.7 -61.65,160.22 -64.6,172.72l52.1 0c19.64,-12.15 42.72,-111.03 57.22,-136.74z"/>
   <path class="fil2" d="M1560.18 133.59c135.15,-9.17 73.9,54.5 56.76,136.86l58.2 -0.49c12.19,-47.35 57.11,-112.75 17.1,-150.78 -33.99,-32.32 -122.94,-20.98 -175.34,-21.46 -11.99,5.68 -8.33,3.23 -14.19,20.13l-51.14 152.08 57.96 0.17 50.65 -136.51z"/>
   <path class="fil1" d="M382.82 97.62c-40.17,-2.25 -116.28,-3.27 -152.79,6.01 -125.99,32.05 -139.47,136.05 -62.12,160.49 34.66,10.95 108.79,7.15 148.8,7.04 13.49,-3.86 36.17,-84.86 38.14,-96.78l-58.93 -1.11 -24.11 62.59c-27.72,1.15 -65.13,4.59 -76.44,-15.91 -12.81,-23.21 2.14,-57 14.71,-69.57 34.43,-34.45 108.04,-22.44 160.27,-22.51l12.47 -30.25z"/>
   <path class="fil3" d="M1962.24 98.59c-97.98,-5.34 -190.18,7.21 -237.16,66.57 -30.58,38.62 -16.85,79.25 21.37,95.8 32.75,14.18 101.07,8.41 141.34,8.37 12.49,-5.75 14.11,-15.85 17.78,-30.22 -67.08,0 -129.13,12.94 -127.78,-34.18 22.19,-9.89 111.73,-4 142.86,-3.67l11.55 -28.02 -140.83 -0.25c15.32,-52.94 103.25,-39.44 158.78,-40.72l12.09 -33.68z"/>
   <path class="fil0" d="M765.36 133.84c-93.32,20.58 -98.32,118.96 -8.8,104.37 86.72,-14.13 110.22,-126.74 8.8,-104.37z"/>
   <path class="fil0" d="M493.81 135.64c-99.76,24.98 -86.15,123.4 2.22,101.07 81.32,-20.56 101.16,-126.97 -2.22,-101.07z"/>
   <polygon class="fil2" points="1489,97.71 1425.38,98.09 1364.79,270.44 1430.31,270.16 "/>
   <path class="fil0" d="M954.12 235.11c45.84,-1.2 94.83,-7.25 114.5,-38.74 37.79,-60.46 -29.78,-68.27 -78.36,-64.19l-36.14 102.93z"/>
  </g>
 </g>
</svg>
